<?xml version="1.0" encoding="UTF-8"?>
<svg xmlns="http://www.w3.org/2000/svg" xmlns:xlink="http://www.w3.org/1999/xlink" width="375pt" height="374.999991pt" viewBox="0 0 375 374.999991" version="1.2">
<defs>
<clipPath id="clip1">
  <path d="M 54.214844 58 L 320.148438 58 L 320.148438 317 L 54.214844 317 Z M 54.214844 58 "/>
</clipPath>
</defs>
<g id="surface1">
<g clip-path="url(#clip1)" clip-rule="nonzero">
<path style=" stroke:none;fill-rule:nonzero;fill:rgb(0%,0%,0%);fill-opacity:1;" d="M 187.179688 58.382812 C 114.050781 58.382812 54.214844 118.402344 54.214844 191.761719 C 54.214844 248.449219 89.671875 296.796875 138.980469 316.25 C 143.96875 315.136719 148.398438 310.691406 148.398438 305.132812 L 148.398438 280.679688 L 133.996094 280.679688 C 123.46875 280.679688 114.605469 275.679688 110.171875 267.898438 C 109.0625 265.675781 107.957031 262.898438 106.847656 260.117188 C 104.632812 254.003906 101.859375 247.335938 96.320312 243.445312 C 94.105469 241.777344 92.996094 238.445312 93.550781 235.664062 C 94.660156 232.886719 97.429688 230.664062 102.414062 231.21875 C 107.957031 231.777344 116.265625 237.890625 121.253906 244.558594 C 125.683594 250.113281 129.007812 253.449219 135.65625 253.449219 L 137.320312 253.449219 C 142.304688 253.449219 154.492188 253.449219 156.710938 251.226562 C 158.371094 249.003906 159.480469 247.335938 161.140625 245.667969 C 127.902344 239 109.0625 219.550781 109.0625 190.09375 C 109.0625 180.089844 111.832031 170.085938 117.929688 161.195312 C 115.710938 152.859375 110.726562 131.1875 121.253906 121.738281 L 122.914062 120.070312 L 125.128906 120.070312 C 139.535156 120.070312 150.0625 126.183594 156.710938 131.183594 C 176.101562 123.960938 198.261719 123.960938 217.652344 131.183594 C 223.746094 126.183594 234.273438 120.070312 249.234375 120.070312 L 251.449219 120.070312 L 253.109375 121.738281 C 263.636719 131.742188 258.652344 152.859375 256.433594 161.195312 C 261.976562 170.085938 265.300781 180.089844 265.300781 190.09375 C 265.300781 219.550781 246.460938 239 213.773438 245.667969 C 222.085938 254.5625 226.519531 267.898438 226.519531 278.457031 L 226.519531 305.691406 C 226.519531 311.246094 230.394531 315.691406 235.9375 316.804688 C 284.691406 296.796875 320.148438 248.449219 320.148438 191.761719 C 320.148438 118.402344 260.3125 58.382812 187.179688 58.382812 Z M 187.179688 58.382812 "/>
</g>
</g>
</svg>
