<?xml version="1.0" encoding="UTF-8"?>
<svg xmlns="http://www.w3.org/2000/svg" xmlns:xlink="http://www.w3.org/1999/xlink" width="375pt" height="374.999991pt" viewBox="0 0 375 374.999991" version="1.2">
<defs>
<clipPath id="clip1">
  <path d="M 69.277344 53 L 208 53 L 208 321 L 69.277344 321 Z M 69.277344 53 "/>
</clipPath>
</defs>
<g id="surface1">
<rect x="0" y="0" width="375" height="374.999991" style="fill:rgb(100%,100%,100%);fill-opacity:1;stroke:none;"/>
<rect x="0" y="0" width="375" height="374.999991" style="fill:rgb(100%,100%,100%);fill-opacity:1;stroke:none;"/>
<rect x="0" y="0" width="375" height="374.999991" style="fill:rgb(100%,100%,100%);fill-opacity:1;stroke:none;"/>
<g clip-path="url(#clip1)" clip-rule="nonzero">
<path style=" stroke:none;fill-rule:nonzero;fill:rgb(30.198669%,71.369934%,67.449951%);fill-opacity:1;" d="M 73.992188 53.492188 C 71.230469 54.207031 69.277344 56.59375 69.277344 60.699219 C 69.277344 72.75 69.277344 186.378906 69.277344 186.378906 C 69.277344 186.378906 69.277344 309.179688 69.277344 314.601562 C 69.277344 317.585938 70.59375 319.582031 72.621094 320.324219 L 207.578125 186.160156 Z M 73.992188 53.492188 "/>
</g>
<path style=" stroke:none;fill-rule:nonzero;fill:rgb(86.268616%,90.589905%,45.878601%);fill-opacity:1;" d="M 244.730469 149.226562 L 189.179688 117.15625 C 189.179688 117.15625 87.230469 58.292969 81.238281 54.835938 C 78.644531 53.335938 76.089844 52.941406 73.992188 53.492188 L 207.582031 186.160156 Z M 244.730469 149.226562 "/>
<path style=" stroke:none;fill-rule:nonzero;fill:rgb(82.749939%,18.429565%,18.429565%);fill-opacity:1;" d="M 78.753906 319.355469 C 82.308594 317.296875 180.960938 260.34375 245.03125 223.351562 L 207.578125 186.160156 L 72.621094 320.324219 C 74.277344 320.933594 76.40625 320.707031 78.753906 319.355469 Z M 78.753906 319.355469 "/>
<path style=" stroke:none;fill-rule:nonzero;fill:rgb(98.429871%,75.289917%,17.649841%);fill-opacity:1;" d="M 299.308594 180.730469 C 293.984375 177.859375 245.140625 149.460938 245.140625 149.460938 L 244.730469 149.226562 L 207.578125 186.160156 L 245.03125 223.351562 C 274.671875 206.242188 296.933594 193.394531 298.925781 192.238281 C 305.238281 188.601562 304.628906 183.597656 299.308594 180.730469 Z M 299.308594 180.730469 "/>
</g>
</svg>
