<?xml version="1.0" encoding="UTF-8"?>
<svg xmlns="http://www.w3.org/2000/svg" xmlns:xlink="http://www.w3.org/1999/xlink" width="375pt" height="374.999991pt" viewBox="0 0 375 374.999991" version="1.2">
<defs>
<clipPath id="clip1">
  <path d="M 50.59375 50.59375 L 324.285156 50.59375 L 324.285156 324.285156 L 50.59375 324.285156 Z M 50.59375 50.59375 "/>
</clipPath>
</defs>
<g id="surface1">
<g clip-path="url(#clip1)" clip-rule="nonzero">
<path style=" stroke:none;fill-rule:nonzero;fill:rgb(0%,46.669006%,70.979309%);fill-opacity:1;" d="M 91.648438 50.59375 L 283.230469 50.59375 C 284.574219 50.59375 285.917969 50.660156 287.253906 50.789062 C 288.59375 50.921875 289.921875 51.121094 291.238281 51.382812 C 292.558594 51.644531 293.863281 51.96875 295.148438 52.359375 C 296.433594 52.75 297.699219 53.203125 298.941406 53.71875 C 300.183594 54.234375 301.398438 54.808594 302.582031 55.441406 C 303.769531 56.074219 304.921875 56.765625 306.039062 57.511719 C 307.15625 58.257812 308.234375 59.058594 309.273438 59.910156 C 310.3125 60.765625 311.308594 61.667969 312.261719 62.617188 C 313.210938 63.566406 314.113281 64.5625 314.964844 65.601562 C 315.820312 66.640625 316.617188 67.71875 317.367188 68.839844 C 318.113281 69.957031 318.804688 71.109375 319.4375 72.292969 C 320.070312 73.480469 320.644531 74.695312 321.160156 75.9375 C 321.675781 77.179688 322.125 78.441406 322.515625 79.730469 C 322.90625 81.015625 323.234375 82.320312 323.496094 83.636719 C 323.757812 84.957031 323.953125 86.285156 324.085938 87.621094 C 324.21875 88.960938 324.285156 90.300781 324.285156 91.648438 L 324.285156 283.230469 C 324.285156 284.574219 324.21875 285.917969 324.085938 287.253906 C 323.953125 288.59375 323.757812 289.921875 323.496094 291.238281 C 323.234375 292.558594 322.90625 293.863281 322.515625 295.148438 C 322.125 296.433594 321.675781 297.699219 321.160156 298.941406 C 320.644531 300.183594 320.070312 301.398438 319.4375 302.582031 C 318.804688 303.769531 318.113281 304.921875 317.367188 306.039062 C 316.617188 307.15625 315.820312 308.234375 314.964844 309.273438 C 314.113281 310.3125 313.210938 311.308594 312.261719 312.261719 C 311.308594 313.210938 310.3125 314.113281 309.273438 314.964844 C 308.234375 315.820312 307.15625 316.617188 306.039062 317.367188 C 304.921875 318.113281 303.769531 318.804688 302.582031 319.4375 C 301.398438 320.070312 300.183594 320.644531 298.941406 321.160156 C 297.699219 321.675781 296.433594 322.125 295.148438 322.515625 C 293.863281 322.90625 292.558594 323.234375 291.238281 323.496094 C 289.921875 323.757812 288.59375 323.953125 287.253906 324.085938 C 285.917969 324.21875 284.574219 324.285156 283.230469 324.285156 L 91.648438 324.285156 C 90.300781 324.285156 88.960938 324.21875 87.621094 324.085938 C 86.285156 323.953125 84.957031 323.757812 83.636719 323.496094 C 82.320312 323.234375 81.015625 322.90625 79.730469 322.515625 C 78.441406 322.125 77.179688 321.675781 75.9375 321.160156 C 74.695312 320.644531 73.480469 320.070312 72.292969 319.4375 C 71.109375 318.804688 69.957031 318.113281 68.839844 317.367188 C 67.71875 316.617188 66.640625 315.820312 65.601562 314.964844 C 64.5625 314.113281 63.566406 313.210938 62.617188 312.261719 C 61.667969 311.308594 60.765625 310.3125 59.910156 309.273438 C 59.058594 308.234375 58.257812 307.15625 57.511719 306.039062 C 56.765625 304.921875 56.074219 303.769531 55.441406 302.582031 C 54.808594 301.398438 54.234375 300.183594 53.71875 298.941406 C 53.203125 297.699219 52.75 296.433594 52.359375 295.148438 C 51.96875 293.863281 51.644531 292.558594 51.382812 291.238281 C 51.121094 289.921875 50.921875 288.59375 50.789062 287.253906 C 50.660156 285.917969 50.59375 284.574219 50.59375 283.230469 L 50.59375 91.648438 C 50.59375 90.300781 50.660156 88.960938 50.789062 87.621094 C 50.921875 86.285156 51.121094 84.957031 51.382812 83.636719 C 51.644531 82.320312 51.96875 81.015625 52.359375 79.730469 C 52.75 78.441406 53.203125 77.179688 53.71875 75.9375 C 54.234375 74.695312 54.808594 73.480469 55.441406 72.292969 C 56.074219 71.109375 56.765625 69.957031 57.511719 68.839844 C 58.257812 67.71875 59.058594 66.640625 59.910156 65.601562 C 60.765625 64.5625 61.667969 63.566406 62.617188 62.617188 C 63.566406 61.667969 64.5625 60.765625 65.601562 59.910156 C 66.640625 59.058594 67.71875 58.257812 68.839844 57.511719 C 69.957031 56.765625 71.109375 56.074219 72.292969 55.441406 C 73.480469 54.808594 74.695312 54.234375 75.9375 53.71875 C 77.179688 53.203125 78.441406 52.75 79.730469 52.359375 C 81.015625 51.96875 82.320312 51.644531 83.636719 51.382812 C 84.957031 51.121094 86.285156 50.921875 87.621094 50.789062 C 88.960938 50.660156 90.300781 50.59375 91.648438 50.59375 Z M 91.648438 50.59375 "/>
</g>
<path style=" stroke:none;fill-rule:nonzero;fill:rgb(100%,100%,100%);fill-opacity:1;" d="M 146.277344 124.363281 C 146.277344 125.007812 146.246094 125.65625 146.183594 126.300781 C 146.121094 126.945312 146.023438 127.585938 145.898438 128.21875 C 145.773438 128.855469 145.613281 129.484375 145.425781 130.101562 C 145.238281 130.722656 145.019531 131.332031 144.773438 131.929688 C 144.523438 132.527344 144.25 133.113281 143.941406 133.683594 C 143.636719 134.257812 143.304688 134.8125 142.945312 135.351562 C 142.585938 135.886719 142.199219 136.40625 141.789062 136.910156 C 141.378906 137.410156 140.941406 137.890625 140.484375 138.347656 C 140.027344 138.804688 139.546875 139.238281 139.046875 139.652344 C 138.546875 140.0625 138.027344 140.445312 137.488281 140.808594 C 136.949219 141.167969 136.394531 141.5 135.824219 141.804688 C 135.253906 142.109375 134.667969 142.386719 134.070312 142.632812 C 133.46875 142.882812 132.859375 143.101562 132.242188 143.289062 C 131.621094 143.476562 130.992188 143.632812 130.359375 143.761719 C 129.722656 143.886719 129.082031 143.980469 128.4375 144.042969 C 127.792969 144.109375 127.148438 144.140625 126.5 144.140625 C 125.851562 144.140625 125.207031 144.109375 124.5625 144.042969 C 123.917969 143.980469 123.277344 143.886719 122.640625 143.761719 C 122.003906 143.632812 121.378906 143.476562 120.757812 143.289062 C 120.136719 143.101562 119.53125 142.882812 118.929688 142.632812 C 118.332031 142.386719 117.746094 142.109375 117.175781 141.804688 C 116.605469 141.5 116.050781 141.167969 115.511719 140.808594 C 114.972656 140.445312 114.453125 140.0625 113.953125 139.652344 C 113.453125 139.238281 112.972656 138.804688 112.515625 138.347656 C 112.054688 137.890625 111.621094 137.410156 111.210938 136.910156 C 110.800781 136.40625 110.414062 135.886719 110.054688 135.351562 C 109.695312 134.8125 109.363281 134.257812 109.058594 133.683594 C 108.75 133.113281 108.476562 132.527344 108.226562 131.929688 C 107.980469 131.332031 107.761719 130.722656 107.574219 130.101562 C 107.386719 129.484375 107.226562 128.855469 107.101562 128.21875 C 106.976562 127.585938 106.878906 126.945312 106.816406 126.300781 C 106.753906 125.65625 106.722656 125.007812 106.722656 124.363281 C 106.722656 123.714844 106.753906 123.066406 106.816406 122.421875 C 106.878906 121.777344 106.976562 121.136719 107.101562 120.503906 C 107.226562 119.867188 107.386719 119.238281 107.574219 118.621094 C 107.761719 118 107.980469 117.390625 108.226562 116.792969 C 108.476562 116.195312 108.75 115.609375 109.058594 115.039062 C 109.363281 114.464844 109.695312 113.910156 110.054688 113.375 C 110.414062 112.835938 110.800781 112.316406 111.210938 111.8125 C 111.621094 111.3125 112.054688 110.835938 112.515625 110.375 C 112.972656 109.917969 113.453125 109.484375 113.953125 109.074219 C 114.453125 108.660156 114.972656 108.277344 115.511719 107.917969 C 116.050781 107.554688 116.605469 107.222656 117.175781 106.917969 C 117.746094 106.613281 118.332031 106.335938 118.929688 106.089844 C 119.53125 105.839844 120.136719 105.621094 120.757812 105.433594 C 121.378906 105.246094 122.003906 105.089844 122.640625 104.964844 C 123.277344 104.835938 123.917969 104.742188 124.5625 104.679688 C 125.207031 104.613281 125.851562 104.582031 126.5 104.582031 C 127.148438 104.582031 127.792969 104.613281 128.4375 104.679688 C 129.082031 104.742188 129.722656 104.835938 130.359375 104.964844 C 130.992188 105.089844 131.621094 105.246094 132.242188 105.433594 C 132.859375 105.621094 133.46875 105.839844 134.070312 106.089844 C 134.667969 106.335938 135.253906 106.613281 135.824219 106.917969 C 136.394531 107.222656 136.949219 107.554688 137.488281 107.917969 C 138.027344 108.277344 138.546875 108.660156 139.046875 109.074219 C 139.546875 109.484375 140.027344 109.917969 140.484375 110.375 C 140.941406 110.835938 141.378906 111.3125 141.789062 111.8125 C 142.199219 112.316406 142.585938 112.835938 142.945312 113.375 C 143.304688 113.910156 143.636719 114.464844 143.941406 115.039062 C 144.25 115.609375 144.523438 116.195312 144.773438 116.792969 C 145.019531 117.390625 145.238281 118 145.425781 118.621094 C 145.613281 119.238281 145.773438 119.867188 145.898438 120.503906 C 146.023438 121.136719 146.121094 121.777344 146.183594 122.421875 C 146.246094 123.066406 146.277344 123.714844 146.277344 124.363281 Z M 146.277344 124.363281 "/>
<path style="fill-rule:nonzero;fill:rgb(100%,100%,100%);fill-opacity:1;stroke-width:66;stroke-linecap:butt;stroke-linejoin:miter;stroke:rgb(100%,100%,100%);stroke-opacity:1;stroke-miterlimit:4;" d="M 243.998551 194.00064 L 243.998551 391.997368 M 142.000458 194.00064 L 142.000458 391.997368 " transform="matrix(0.534554,0,0,0.534554,50.593158,50.593153)"/>
<path style=" stroke:none;fill-rule:nonzero;fill:rgb(100%,100%,100%);fill-opacity:1;" d="M 198.128906 201.335938 C 198.128906 190.644531 205.078125 179.957031 217.375 179.957031 C 230.203125 179.957031 235.015625 189.578125 235.015625 204.011719 L 235.015625 260.136719 L 270.292969 260.136719 L 270.292969 199.734375 C 270.292969 167.125 253.1875 152.160156 229.667969 152.160156 C 211.492188 152.160156 202.40625 162.316406 198.128906 169.265625 "/>
</g>
</svg>
