<?xml version="1.0" encoding="UTF-8"?>
<svg xmlns="http://www.w3.org/2000/svg" xmlns:xlink="http://www.w3.org/1999/xlink" width="375pt" height="374.999991pt" viewBox="0 0 375 374.999991" version="1.2">
<defs>
<clipPath id="clip1">
  <path d="M 109 70.613281 L 287 70.613281 L 287 258 L 109 258 Z M 109 70.613281 "/>
</clipPath>
</defs>
<g id="surface1">
<path style=" stroke:none;fill-rule:nonzero;fill:rgb(8.239746%,21.179199%,27.839661%);fill-opacity:1;" d="M 315.632812 176.066406 L 102.863281 100.039062 L 97.246094 116.460938 L 176.632812 230.140625 L 309.839844 192.421875 L 315.632812 176.066406 "/>
<path style=" stroke:none;fill-rule:nonzero;fill:rgb(8.239746%,21.179199%,27.839661%);fill-opacity:1;" d="M 315.632812 176.066406 L 102.863281 100.039062 L 97.246094 116.460938 L 182.296875 214.140625 L 309.839844 192.421875 L 315.632812 176.066406 "/>
<path style=" stroke:none;fill-rule:nonzero;fill:rgb(14.509583%,37.249756%,49.01886%);fill-opacity:1;" d="M 309.945312 192.125 L 97.171875 116.09375 L 103.144531 99.800781 L 230.515625 78.023438 L 315.738281 175.765625 L 309.945312 192.125 "/>
<g clip-path="url(#clip1)" clip-rule="nonzero">
<path style=" stroke:none;fill-rule:nonzero;fill:rgb(100%,100%,100%);fill-opacity:1;" d="M 232.699219 257.203125 L 286.429688 117.8125 L 165.070312 70.621094 L 109.710938 214.503906 L 232.699219 257.203125 "/>
</g>
<path style=" stroke:none;fill-rule:nonzero;fill:rgb(10.5896%,27.059937%,35.289001%);fill-opacity:1;" d="M 182.296875 214.140625 L 97.246094 116.460938 L 176.632812 230.140625 L 309.839844 192.421875 L 182.296875 214.140625 "/>
<path style=" stroke:none;fill-rule:nonzero;fill:rgb(11.759949%,29.798889%,39.219666%);fill-opacity:1;" d="M 191.117188 189.25 L 62.09375 215.132812 L 61.152344 217.789062 C 58.589844 225.015625 62.351562 232.960938 69.550781 235.535156 L 256.261719 302.25 C 263.457031 304.820312 271.363281 301.042969 273.925781 293.816406 L 274.867188 291.160156 L 191.117188 189.25 "/>
<path style=" stroke:none;fill-rule:nonzero;fill:rgb(14.509583%,37.249756%,49.01886%);fill-opacity:1;" d="M 185.355469 205.519531 L 62.09375 215.132812 L 61.152344 217.789062 C 58.589844 225.015625 62.351562 232.960938 69.550781 235.535156 L 256.261719 302.25 C 263.457031 304.820312 271.363281 301.042969 273.925781 293.816406 L 274.867188 291.160156 L 185.355469 205.519531 "/>
<path style=" stroke:none;fill-rule:nonzero;fill:rgb(14.509583%,37.249756%,49.01886%);fill-opacity:1;" d="M 274.867188 291.160156 L 309.839844 192.421875 L 215.644531 219.09375 Z M 274.867188 291.160156 "/>
<path style=" stroke:none;fill-rule:nonzero;fill:rgb(14.509583%,37.249756%,49.01886%);fill-opacity:1;" d="M 97.246094 116.460938 L 97.910156 114.519531 C 97.59375 115.117188 97.300781 115.738281 97.066406 116.394531 L 62.09375 215.132812 L 153.363281 196.824219 L 97.246094 116.460938 "/>
<path style=" stroke:none;fill-rule:nonzero;fill:rgb(8.239746%,21.179199%,27.839661%);fill-opacity:1;" d="M 215.621094 140.375 L 214.96875 142.601562 L 213.347656 148.171875 L 209.871094 160.070312 C 208.480469 160.816406 207.171875 161.308594 205.953125 161.554688 C 204.730469 161.800781 203.417969 161.71875 202.007812 161.304688 C 199.328125 160.515625 197.703125 158.914062 197.144531 156.5 C 196.582031 154.089844 196.929688 150.734375 198.183594 146.433594 C 198.441406 145.554688 198.722656 144.730469 199.027344 143.953125 C 199.84375 141.847656 200.828125 140.125 201.980469 138.777344 C 202.320312 138.375 202.667969 137.996094 203.039062 137.667969 C 203.335938 137.394531 203.648438 137.160156 203.960938 136.941406 C 204.425781 136.617188 204.90625 136.355469 205.398438 136.15625 C 206.84375 135.574219 208.394531 135.519531 210.054688 136.007812 C 211.242188 136.359375 212.277344 136.800781 213.148438 137.339844 C 213.898438 137.804688 214.671875 138.398438 215.464844 139.121094 C 215.601562 139.246094 215.738281 139.363281 215.878906 139.496094 Z M 242.457031 148.277344 C 242.476562 147.875 242.488281 147.480469 242.5 147.082031 C 242.523438 146.265625 242.523438 145.457031 242.492188 144.660156 C 242.46875 143.972656 242.421875 143.289062 242.355469 142.617188 C 241.882812 137.847656 240.566406 133.496094 238.421875 129.554688 C 236.332031 125.625 233.464844 122.210938 229.828125 119.308594 C 226.183594 116.402344 221.980469 114.25 217.214844 112.84375 C 212.417969 111.433594 207.621094 111.011719 202.820312 111.578125 C 198.019531 112.144531 193.625 113.554688 189.640625 115.808594 C 185.5625 118.097656 181.992188 121.132812 178.945312 124.921875 C 178.722656 125.195312 178.519531 125.480469 178.308594 125.761719 C 177.8125 126.414062 177.335938 127.078125 176.890625 127.765625 C 176.675781 128.097656 176.464844 128.441406 176.257812 128.785156 C 175.851562 129.464844 175.457031 130.148438 175.082031 130.859375 C 174.203125 132.554688 173.4375 134.34375 172.785156 136.226562 C 172.566406 136.875 172.355469 137.53125 172.160156 138.195312 C 170.628906 143.449219 170.074219 148.546875 170.5 153.492188 C 170.925781 158.433594 172.210938 162.917969 174.363281 166.953125 C 176.53125 171.019531 179.472656 174.527344 183.183594 177.484375 C 186.898438 180.441406 191.234375 182.648438 196.191406 184.105469 C 199.148438 184.980469 201.914062 185.628906 204.492188 186.0625 C 207.074219 186.496094 209.707031 186.800781 212.394531 186.96875 L 214.703125 179.050781 C 212.234375 179.0625 209.46875 178.84375 206.40625 178.402344 C 203.347656 177.957031 200.664062 177.402344 198.363281 176.722656 C 194.902344 175.703125 191.789062 174.125 189.035156 171.980469 C 186.273438 169.835938 184.0625 167.25 182.390625 164.214844 C 180.726562 161.15625 179.703125 157.632812 179.320312 153.648438 C 178.945312 149.664062 179.425781 145.359375 180.777344 140.730469 C 180.972656 140.058594 181.191406 139.414062 181.417969 138.769531 C 182.09375 136.875 182.902344 135.09375 183.859375 133.445312 C 184.265625 132.738281 184.703125 132.066406 185.164062 131.410156 C 185.402344 131.070312 185.636719 130.738281 185.886719 130.410156 C 186.074219 130.167969 186.261719 129.917969 186.453125 129.679688 C 186.792969 129.261719 187.140625 128.859375 187.492188 128.464844 C 189.761719 125.933594 192.234375 123.941406 194.917969 122.507812 C 197.949219 120.886719 201.210938 119.855469 204.710938 119.40625 C 208.207031 118.957031 211.675781 119.238281 215.113281 120.253906 C 218.714844 121.3125 221.894531 122.871094 224.648438 124.917969 C 227.402344 126.972656 229.589844 129.503906 231.207031 132.527344 C 232.703125 135.324219 233.601562 138.53125 233.914062 142.132812 C 233.929688 142.324219 233.949219 142.519531 233.96875 142.714844 C 234.003906 143.328125 234.019531 143.949219 234.019531 144.582031 C 234.019531 144.980469 234.015625 145.378906 234.003906 145.789062 C 233.972656 146.5625 233.90625 147.351562 233.820312 148.152344 C 233.613281 149.992188 233.261719 151.898438 232.75 153.882812 C 232.621094 154.378906 232.484375 154.875 232.339844 155.378906 C 231.664062 157.695312 230.722656 160.039062 229.515625 162.417969 C 228.304688 164.796875 226.902344 166.917969 225.296875 168.78125 L 218.390625 166.746094 L 222.980469 151.007812 L 224.605469 145.4375 L 225.257812 143.210938 L 225.582031 142.097656 L 226.234375 139.871094 L 228.113281 133.433594 L 218.679688 130.65625 L 217.941406 133.1875 C 217.394531 132.230469 216.53125 131.214844 215.34375 130.136719 C 214.152344 129.066406 212.667969 128.265625 210.875 127.738281 C 208.792969 127.125 206.550781 126.996094 204.152344 127.355469 C 201.746094 127.710938 199.554688 128.542969 197.550781 129.84375 C 197.015625 130.191406 196.492188 130.566406 195.984375 130.964844 C 195.285156 131.519531 194.625 132.140625 193.984375 132.792969 C 193.679688 133.105469 193.375 133.410156 193.085938 133.738281 C 192.667969 134.222656 192.265625 134.71875 191.871094 135.242188 C 191.761719 135.390625 191.652344 135.550781 191.546875 135.707031 C 190.492188 137.21875 189.582031 138.960938 188.824219 140.949219 C 188.503906 141.773438 188.210938 142.640625 187.945312 143.550781 C 186.132812 149.757812 186.0625 155.09375 187.730469 159.5625 C 189.402344 164.027344 192.445312 166.910156 196.859375 168.210938 C 199.570312 169.007812 201.734375 169.3125 203.347656 169.125 C 204.960938 168.933594 206.691406 168.550781 208.539062 167.96875 L 208.261719 171.34375 L 228.828125 177.402344 C 231.210938 175.292969 233.515625 172.433594 235.746094 168.820312 C 237.980469 165.207031 239.652344 161.496094 240.765625 157.683594 C 240.894531 157.238281 241.003906 156.792969 241.121094 156.347656 C 241.628906 154.40625 241.996094 152.5 242.230469 150.628906 C 242.324219 149.835938 242.40625 149.054688 242.457031 148.277344 "/>
</g>
</svg>
