<?xml version="1.0" encoding="UTF-8"?>
<svg xmlns="http://www.w3.org/2000/svg" xmlns:xlink="http://www.w3.org/1999/xlink" width="375pt" height="374.999991pt" viewBox="0 0 375 374.999991" version="1.2">
<defs>
<clipPath id="clip1">
  <path d="M 51.101562 36.15625 L 324.101562 36.15625 L 324.101562 339.15625 L 51.101562 339.15625 Z M 51.101562 36.15625 "/>
</clipPath>
</defs>
<g id="surface1">
<g clip-path="url(#clip1)" clip-rule="nonzero">
<path style=" stroke:none;fill-rule:nonzero;fill:rgb(36.468506%,25.099182%,21.569824%);fill-opacity:1;" d="M 324.125 137.007812 C 324.125 292.457031 187.707031 339.472656 187.707031 339.472656 C 187.707031 339.472656 51.289062 292.457031 51.289062 137.007812 C 51.289062 118.050781 52.804688 102.125 54.320312 89.234375 C 56.59375 70.277344 69.476562 55.113281 87.664062 50.5625 C 111.160156 43.738281 148.296875 36.15625 187.707031 36.15625 C 227.117188 36.15625 264.25 43.738281 288.503906 50.5625 C 306.691406 55.113281 319.578125 71.035156 321.851562 89.234375 C 322.609375 102.125 324.125 118.808594 324.125 137.007812 Z M 324.125 137.007812 "/>
<path style=" stroke:none;fill-rule:nonzero;fill:rgb(29.798889%,68.629456%,31.369019%);fill-opacity:1;" d="M 187.707031 58.902344 C 224.84375 58.902344 259.703125 66.488281 282.441406 72.554688 C 291.535156 74.828125 297.597656 82.410156 299.113281 92.269531 C 300.628906 106.675781 301.386719 121.84375 301.386719 137.007812 C 301.386719 255.300781 214.230469 303.074219 187.707031 314.449219 C 161.179688 302.316406 74.023438 254.542969 74.023438 137.007812 C 74.023438 121.84375 74.78125 106.675781 76.296875 92.269531 C 77.054688 82.410156 83.875 74.828125 92.972656 72.554688 C 115.707031 66.488281 150.570312 58.902344 187.707031 58.902344 M 187.707031 36.15625 C 148.296875 36.15625 111.160156 43.738281 86.90625 50.5625 C 69.476562 55.113281 55.835938 71.035156 54.320312 89.234375 C 52.804688 102.125 51.289062 118.808594 51.289062 137.007812 C 51.289062 292.457031 187.707031 339.472656 187.707031 339.472656 C 187.707031 339.472656 324.125 292.457031 324.125 137.007812 C 324.125 118.050781 322.609375 102.125 321.09375 89.234375 C 318.820312 70.277344 305.933594 55.113281 287.746094 50.5625 C 264.25 43.738281 227.117188 36.15625 187.707031 36.15625 Z M 187.707031 36.15625 "/>
</g>
<path style=" stroke:none;fill-rule:nonzero;fill:rgb(86.268616%,92.939758%,78.42865%);fill-opacity:1;" d="M 180.128906 218.144531 L 195.285156 218.144531 L 195.285156 278.808594 L 180.128906 278.808594 Z M 180.128906 218.144531 "/>
<path style=" stroke:none;fill-rule:nonzero;fill:rgb(29.798889%,68.629456%,31.369019%);fill-opacity:1;" d="M 187.707031 81.652344 C 187.707031 81.652344 142.234375 119.566406 142.234375 180.230469 C 142.234375 219.660156 167.242188 244.683594 180.128906 256.058594 L 187.707031 233.3125 L 195.285156 256.058594 C 208.167969 244.683594 233.179688 219.660156 233.179688 180.230469 C 233.179688 119.566406 187.707031 81.652344 187.707031 81.652344 Z M 187.707031 81.652344 "/>
<path style=" stroke:none;fill-rule:nonzero;fill:rgb(50.588989%,78.039551%,51.759338%);fill-opacity:1;" d="M 187.707031 81.652344 C 187.707031 81.652344 142.234375 119.566406 142.234375 180.230469 C 142.234375 219.660156 167.242188 244.683594 180.128906 256.058594 L 187.707031 233.3125 Z M 187.707031 81.652344 "/>
</g>
</svg>
