<?xml version="1.0" encoding="UTF-8"?>
<svg xmlns="http://www.w3.org/2000/svg" xmlns:xlink="http://www.w3.org/1999/xlink" width="375pt" height="374.999991pt" viewBox="0 0 375 374.999991" version="1.2">
<defs>
<clipPath id="clip1">
  <path d="M 70.039062 68.164062 L 304.789062 68.164062 L 304.789062 306.664062 L 70.039062 306.664062 Z M 70.039062 68.164062 "/>
</clipPath>
</defs>
<g id="surface1">
<g clip-path="url(#clip1)" clip-rule="nonzero">
<path style=" stroke:none;fill-rule:nonzero;fill:rgb(0%,29.019165%,67.83905%);fill-opacity:1;" d="M 292.011719 236.941406 C 284.5625 232.210938 274.234375 227.8125 262.941406 224.539062 C 251.75 221.300781 240.746094 219.515625 231.945312 219.515625 C 220.035156 219.515625 213.03125 222.789062 211.09375 229.324219 C 211.089844 229.339844 210.335938 232 209.382812 235.1875 C 209.335938 235.359375 209.285156 235.558594 209.242188 235.757812 L 207.148438 243.011719 C 204.75 242.328125 202.582031 241.035156 200.832031 239.199219 L 137.722656 173.613281 C 135.199219 170.984375 133.855469 167.484375 133.863281 163.796875 C 134.296875 163.671875 134.738281 163.539062 135.195312 163.402344 C 137.539062 163.652344 139.675781 163.230469 141.226562 162.316406 L 150.4375 157.234375 C 152.910156 155.855469 154.964844 154.71875 155.175781 154.59375 C 155.410156 154.496094 155.640625 154.386719 155.859375 154.261719 C 168.0625 147.460938 159.761719 122.234375 148.941406 102.703125 C 145.75 96.933594 129.058594 68.164062 114.101562 68.164062 C 112.226562 68.164062 110.476562 68.597656 108.894531 69.457031 C 108.808594 69.503906 108.726562 69.554688 108.640625 69.605469 L 103.570312 72.410156 C 103.394531 72.5 103.195312 72.621094 103 72.746094 C 95.492188 76.875 90.046875 81.324219 84.257812 88.042969 C 80.496094 92.414062 77.40625 97.152344 75.078125 102.125 C 70.351562 112.222656 68.972656 123.097656 71.183594 132.816406 C 74.25 162.054688 97.429688 201.074219 134.855469 239.980469 C 170.03125 276.554688 211.101562 301.875 242.042969 306.058594 C 245.066406 306.464844 247.867188 306.664062 250.597656 306.664062 C 260.003906 306.664062 268.351562 304.203125 276.117188 299.132812 C 288.234375 291.234375 296.292969 280.074219 302.214844 263.019531 C 302.304688 262.777344 302.398438 262.464844 302.480469 262.140625 L 303.351562 259.148438 C 303.734375 257.847656 304.011719 256.890625 304.023438 256.824219 C 304.097656 256.625 304.167969 256.421875 304.226562 256.21875 C 306.105469 249.757812 301.992188 243.269531 292.011719 236.941406 Z M 292.011719 236.941406 "/>
</g>
</g>
</svg>
