<?xml version="1.0" encoding="UTF-8"?>
<svg xmlns="http://www.w3.org/2000/svg" xmlns:xlink="http://www.w3.org/1999/xlink" width="384pt" height="383.999986pt" viewBox="0 0 384 383.999986" version="1.2">
<defs>
<clipPath id="clip1">
  <path d="M 149 57.179688 L 236 57.179688 L 236 327.179688 L 149 327.179688 Z M 149 57.179688 "/>
</clipPath>
<clipPath id="clip2">
  <path d="M 95 57.179688 L 289 57.179688 L 289 327.179688 L 95 327.179688 Z M 95 57.179688 "/>
</clipPath>
<clipPath id="clip3">
  <path d="M 57.179688 151 L 327.179688 151 L 327.179688 233 L 57.179688 233 Z M 57.179688 151 "/>
</clipPath>
<clipPath id="clip4">
  <path d="M 57.179688 57.179688 L 327.179688 57.179688 L 327.179688 327.179688 L 57.179688 327.179688 Z M 57.179688 57.179688 "/>
</clipPath>
</defs>
<g id="surface1">
<path style=" stroke:none;fill-rule:nonzero;fill:rgb(0%,0%,0%);fill-opacity:1;" d="M 292.339844 119.742188 L 88.101562 119.742188 C 85.234375 119.742188 82.917969 117.421875 82.917969 114.558594 C 82.917969 111.699219 85.238281 109.382812 88.101562 109.382812 L 292.335938 109.382812 C 295.195312 109.382812 297.515625 111.699219 297.515625 114.558594 C 297.519531 117.421875 295.195312 119.742188 292.339844 119.742188 Z M 292.339844 119.742188 "/>
<path style=" stroke:none;fill-rule:nonzero;fill:rgb(0%,0%,0%);fill-opacity:1;" d="M 292.816406 275.355469 L 93.277344 275.355469 C 90.414062 275.355469 88.097656 273.035156 88.097656 270.175781 C 88.097656 267.3125 90.417969 264.992188 93.277344 264.992188 L 292.8125 264.992188 C 295.671875 264.992188 297.996094 267.3125 297.996094 270.175781 C 297.996094 273.035156 295.671875 275.355469 292.816406 275.355469 Z M 292.816406 275.355469 "/>
<g clip-path="url(#clip1)" clip-rule="nonzero">
<path style=" stroke:none;fill-rule:nonzero;fill:rgb(0%,0%,0%);fill-opacity:1;" d="M 192.328125 327.601562 C 184.617188 327.601562 173.359375 322.371094 163.535156 297.445312 C 156.550781 279.710938 151.609375 255.730469 149.25 228.109375 C 149.128906 226.660156 149.613281 225.234375 150.597656 224.164062 C 151.574219 223.097656 152.960938 222.492188 154.410156 222.492188 L 230.222656 222.492188 C 231.675781 222.492188 233.058594 223.097656 234.039062 224.164062 C 235.019531 225.234375 235.507812 226.660156 235.382812 228.109375 C 233.027344 255.738281 228.085938 279.714844 221.105469 297.445312 C 211.300781 322.371094 200.046875 327.601562 192.328125 327.601562 Z M 160.097656 232.851562 C 162.519531 256.84375 167.117188 278.265625 173.175781 293.648438 C 179.085938 308.640625 186.066406 317.242188 192.328125 317.242188 C 198.59375 317.242188 205.570312 308.640625 211.476562 293.648438 C 217.527344 278.269531 222.121094 256.847656 224.542969 232.851562 Z M 230.238281 162.269531 C 230.234375 162.269531 230.230469 162.269531 230.226562 162.269531 L 154.414062 162.269531 C 152.964844 162.269531 151.578125 161.660156 150.601562 160.589844 C 149.617188 159.523438 149.132812 158.09375 149.253906 156.648438 C 151.609375 129.011719 156.554688 105.027344 163.539062 87.289062 C 173.359375 62.363281 184.617188 57.128906 192.332031 57.128906 C 200.050781 57.128906 211.308594 62.363281 221.117188 87.289062 C 228.066406 104.941406 232.992188 128.785156 235.363281 156.269531 C 235.402344 156.535156 235.425781 156.804688 235.425781 157.085938 C 235.421875 159.949219 233.101562 162.269531 230.238281 162.269531 Z M 160.097656 151.90625 L 224.542969 151.90625 C 222.125 127.898438 217.527344 106.46875 211.476562 91.089844 C 205.574219 76.09375 198.59375 67.492188 192.328125 67.492188 C 186.066406 67.492188 179.085938 76.089844 173.175781 91.089844 C 167.117188 106.476562 162.519531 127.90625 160.097656 151.90625 Z M 160.097656 151.90625 "/>
</g>
<g clip-path="url(#clip2)" clip-rule="nonzero">
<path style=" stroke:none;fill-rule:nonzero;fill:rgb(0%,0%,0%);fill-opacity:1;" d="M 192.328125 327.601562 C 169.785156 327.601562 148.53125 317.75 130.859375 299.109375 C 114.0625 281.394531 101.6875 256.390625 96.011719 228.707031 C 95.699219 227.179688 96.085938 225.597656 97.074219 224.394531 C 98.054688 223.183594 99.535156 222.488281 101.085938 222.488281 L 283.554688 222.488281 C 285.113281 222.488281 286.582031 223.183594 287.566406 224.394531 C 288.554688 225.597656 288.941406 227.183594 288.632812 228.707031 C 282.960938 256.386719 270.585938 281.390625 253.789062 299.109375 C 236.117188 317.75 214.863281 327.601562 192.328125 327.601562 Z M 107.566406 232.851562 C 119.894531 282.855469 154.09375 317.242188 192.328125 317.242188 C 230.554688 317.242188 264.75 282.855469 277.078125 232.851562 Z M 283.566406 162.269531 C 283.5625 162.269531 283.558594 162.269531 283.554688 162.269531 L 101.085938 162.269531 C 99.53125 162.269531 98.054688 161.570312 97.074219 160.363281 C 96.089844 159.152344 95.699219 157.570312 96.011719 156.046875 C 101.6875 128.355469 114.0625 103.347656 130.859375 85.625 C 148.527344 66.988281 169.785156 57.132812 192.328125 57.132812 C 214.867188 57.132812 236.117188 66.988281 253.785156 85.625 C 270.503906 103.269531 282.84375 128.132812 288.554688 155.671875 C 288.683594 156.117188 288.75 156.59375 288.75 157.085938 C 288.753906 159.949219 286.429688 162.269531 283.566406 162.269531 Z M 107.566406 151.90625 L 277.078125 151.90625 C 264.753906 101.890625 230.554688 67.496094 192.328125 67.496094 C 154.09375 67.496094 119.890625 101.890625 107.566406 151.90625 Z M 107.566406 151.90625 "/>
</g>
<path style=" stroke:none;fill-rule:nonzero;fill:rgb(0%,0%,0%);fill-opacity:1;" d="M 102.546875 178.097656 L 106.386719 189.578125 L 106.464844 189.78125 C 107.03125 191.394531 107.390625 192.683594 107.546875 193.644531 C 107.644531 193.097656 107.78125 192.523438 107.941406 191.921875 C 108.105469 191.316406 108.34375 190.546875 108.648438 189.605469 L 112.5625 178.097656 L 122.058594 178.097656 L 111.148438 204.101562 L 104.65625 204.101562 L 100.792969 192.332031 C 100.59375 191.664062 100.40625 190.992188 100.242188 190.3125 C 100.078125 189.632812 99.925781 188.960938 99.792969 188.289062 C 99.601562 189.320312 99.269531 190.617188 98.785156 192.175781 L 98.738281 192.359375 L 94.902344 204.097656 L 88.410156 204.097656 L 77.546875 178.097656 L 86.996094 178.097656 L 90.882812 189.601562 C 91.171875 190.441406 91.40625 191.175781 91.578125 191.804688 C 91.75 192.429688 91.890625 193.042969 91.988281 193.644531 C 92.148438 192.789062 92.484375 191.597656 92.996094 190.070312 C 93.066406 189.859375 93.117188 189.707031 93.152344 189.605469 L 97.015625 178.097656 Z M 102.546875 178.097656 "/>
<path style=" stroke:none;fill-rule:nonzero;fill:rgb(0%,0%,0%);fill-opacity:1;" d="M 144.945312 178.097656 L 148.785156 189.578125 L 148.855469 189.78125 C 149.429688 191.394531 149.785156 192.683594 149.9375 193.644531 C 150.039062 193.097656 150.175781 192.523438 150.339844 191.921875 C 150.503906 191.316406 150.738281 190.546875 151.046875 189.605469 L 154.957031 178.097656 L 164.457031 178.097656 L 153.539062 204.101562 L 147.054688 204.101562 L 143.195312 192.332031 C 142.984375 191.664062 142.800781 190.992188 142.636719 190.3125 C 142.46875 189.632812 142.320312 188.960938 142.183594 188.289062 C 142 189.320312 141.664062 190.617188 141.183594 192.175781 L 141.132812 192.359375 L 137.292969 204.097656 L 130.808594 204.097656 L 119.9375 178.097656 L 129.394531 178.097656 L 133.277344 189.601562 C 133.570312 190.441406 133.800781 191.175781 133.972656 191.804688 C 134.148438 192.429688 134.285156 193.042969 134.390625 193.644531 C 134.542969 192.789062 134.878906 191.597656 135.390625 190.070312 C 135.457031 189.859375 135.511719 189.707031 135.542969 189.605469 L 139.40625 178.097656 Z M 144.945312 178.097656 "/>
<path style=" stroke:none;fill-rule:nonzero;fill:rgb(0%,0%,0%);fill-opacity:1;" d="M 187.351562 178.097656 L 191.179688 189.578125 L 191.261719 189.78125 C 191.828125 191.394531 192.1875 192.683594 192.339844 193.644531 C 192.441406 193.097656 192.574219 192.523438 192.738281 191.921875 C 192.902344 191.316406 193.136719 190.546875 193.449219 189.605469 L 197.359375 178.097656 L 206.855469 178.097656 L 195.941406 204.101562 L 189.453125 204.101562 L 185.59375 192.332031 C 185.386719 191.664062 185.207031 190.992188 185.039062 190.3125 C 184.871094 189.632812 184.722656 188.960938 184.585938 188.289062 C 184.398438 189.320312 184.066406 190.617188 183.585938 192.175781 L 183.53125 192.359375 L 179.695312 204.097656 L 173.207031 204.097656 L 162.34375 178.097656 L 171.789062 178.097656 L 175.675781 189.601562 C 175.96875 190.441406 176.203125 191.175781 176.375 191.804688 C 176.546875 192.429688 176.683594 193.042969 176.789062 193.644531 C 176.941406 192.789062 177.273438 191.597656 177.789062 190.070312 C 177.859375 189.859375 177.910156 189.707031 177.945312 189.605469 L 181.8125 178.097656 Z M 187.351562 178.097656 "/>
<path style=" stroke:none;fill-rule:nonzero;fill:rgb(0%,0%,0%);fill-opacity:1;" d="M 205.074219 199.875 C 205.074219 198.417969 205.570312 197.191406 206.550781 196.195312 C 207.539062 195.199219 208.761719 194.703125 210.222656 194.703125 C 211.714844 194.703125 212.960938 195.199219 213.957031 196.195312 C 214.953125 197.191406 215.445312 198.417969 215.445312 199.875 C 215.445312 201.335938 214.949219 202.570312 213.941406 203.582031 C 212.941406 204.597656 211.699219 205.101562 210.222656 205.101562 C 208.777344 205.101562 207.5625 204.597656 206.566406 203.582031 C 205.574219 202.570312 205.074219 201.335938 205.074219 199.875 Z M 205.074219 199.875 "/>
<path style=" stroke:none;fill-rule:nonzero;fill:rgb(0%,0%,0%);fill-opacity:1;" d="M 297.042969 206.414062 L 229.695312 206.414062 C 226.832031 206.414062 224.511719 204.09375 224.511719 201.234375 C 224.511719 198.371094 226.835938 196.054688 229.695312 196.054688 L 297.042969 196.054688 C 299.902344 196.054688 302.222656 198.371094 302.222656 201.234375 C 302.222656 204.09375 299.898438 206.414062 297.042969 206.414062 Z M 297.042969 206.414062 "/>
<g clip-path="url(#clip3)" clip-rule="nonzero">
<path style=" stroke:none;fill-rule:nonzero;fill:rgb(0%,0%,0%);fill-opacity:1;" d="M 317.542969 232.851562 L 67.117188 232.851562 C 64.800781 232.851562 62.757812 231.304688 62.132812 229.066406 C 59.375 219.261719 57.726562 209.132812 57.242188 198.960938 C 57.238281 198.878906 57.238281 198.796875 57.238281 198.714844 L 57.238281 186.039062 C 57.238281 185.957031 57.238281 185.875 57.246094 185.792969 C 57.726562 175.601562 59.375 165.472656 62.140625 155.683594 C 62.765625 153.449219 64.804688 151.90625 67.121094 151.90625 L 317.546875 151.90625 C 319.867188 151.90625 321.910156 153.453125 322.535156 155.6875 C 325.871094 167.582031 327.558594 179.921875 327.558594 192.375 C 327.558594 204.804688 325.871094 217.148438 322.535156 229.0625 C 321.902344 231.300781 319.863281 232.851562 317.542969 232.851562 Z M 71.113281 222.488281 L 313.546875 222.488281 C 315.964844 212.664062 317.191406 202.554688 317.191406 192.378906 C 317.191406 182.1875 315.964844 172.074219 313.550781 162.269531 L 71.113281 162.269531 C 69.167969 170.082031 67.992188 178.101562 67.601562 186.164062 L 67.601562 198.589844 C 67.992188 206.636719 69.167969 214.65625 71.113281 222.488281 Z M 71.113281 222.488281 "/>
</g>
<g clip-path="url(#clip4)" clip-rule="nonzero">
<path style=" stroke:none;fill-rule:nonzero;fill:rgb(0%,0%,0%);fill-opacity:1;" d="M 192.328125 327.601562 C 156.203125 327.601562 122.246094 313.539062 96.699219 288 C 71.15625 262.460938 57.085938 228.5 57.085938 192.378906 C 57.085938 117.804688 117.753906 57.132812 192.328125 57.132812 C 266.886719 57.132812 327.554688 117.804688 327.554688 192.378906 C 327.554688 228.5 313.488281 262.457031 287.953125 288 C 262.414062 313.539062 228.453125 327.601562 192.328125 327.601562 Z M 192.328125 67.496094 C 123.46875 67.496094 67.449219 123.515625 67.449219 192.378906 C 67.449219 261.226562 123.46875 317.242188 192.328125 317.242188 C 261.179688 317.242188 317.191406 261.226562 317.191406 192.378906 C 317.191406 123.515625 261.179688 67.496094 192.328125 67.496094 Z M 192.328125 67.496094 "/>
</g>
</g>
</svg>
